<svg xmlns="http://www.w3.org/2000/svg" style="border: 0 !important; clip: rect(0 0 0 0) !important; height: 1px !important; margin: -1px !important; overflow: hidden !important; padding: 0 !important; position: absolute !important; width: 1px !important;" class="root-svg-symbols-element">
    <symbol id="arrow-top" viewBox="0 0 20 24">
      <path d="M11.9 22.6v-16l5.1 5c.2.2.6.4.9.4.4 0 .7-.1.9-.4l.8-.8c.2-.2.4-.6.4-.9 0-.4-.1-.7-.4-.9L10.9.4c-.2-.3-.6-.4-.9-.4-.4 0-.7.1-.9.4L.4 9.1c-.2.2-.4.5-.4.9s.1.7.4.9l.8.8c.2.2.6.4.9.4.4 0 .7-.1.9-.4l5.1-5.1v16.1c0 .7.6 1.3 1.3 1.3h1.1c.8 0 1.4-.6 1.4-1.4z"/>
    </symbol>
    <symbol id="basket" viewBox="0 0 24 21">
      <path d="M6.5 16.2c1.3.1 2.3 1.2 2.3 2.5-.1 1.3-1.2 2.4-2.5 2.3C5 20.9 4 19.9 4 18.6c0-1.3 1.2-2.4 2.5-2.4zm10 0c1.3.1 2.3 1.2 2.3 2.5-.1 1.3-1.2 2.3-2.5 2.3-1.3-.1-2.3-1.1-2.3-2.4 0-1.3 1.1-2.4 2.5-2.4zM4 3.8v9.5h15l5-8.6v-1H4zM0 0v1.9h4v1.9h2V0H0z"/>
    </symbol>
    <symbol id="burger" viewBox="0 0 128 120">
      <path d="M125.5 75.6c2.7-4.2 3.2-9.5 1.3-14.2.8-1.3 1.2-2.9 1.2-4.4 0-3.1-1.6-7.8-4-9.4 2.5-2.4 4-5.8 4-9.3C128 13.9 108.1 0 83.6 0H44.4C19.9 0 0 13.9 0 38.3c0 3.5 1.4 6.9 4 9.3-2.4 1.6-4 6.3-4 9.4 0 1.6.4 3.1 1.2 4.4-1.9 4.7-1.4 10 1.3 14.2-3.4 4-3.3 9.9.1 13.8v6.8c0 13.1 10.7 23.7 23.8 23.7h75.2c13.1 0 23.7-10.6 23.8-23.7v-6.8c3.4-3.9 3.5-9.7.1-13.8zm-5.3 20.7c0 10.2-8.3 18.5-18.5 18.5H26.4c-10.2 0-18.5-8.3-18.5-18.5v-3.5c.9.3 1.9.4 2.9.4h26.4c1.4 0 2.6-1.2 2.6-2.6S38.5 88 37.1 88H10.7c-3 0-5.5-2.5-5.5-5.5 0-1.3.4-2.5 1.3-3.5 3.7 1.7 8.1 1.3 11.5-1 2.2-1.5 5.2-1.5 7.4 0 4 2.7 9.3 2.7 13.3 0 1.7-1.2 3.9-1.5 5.9-.8h.1L59.4 88h-5c-1.4 0-2.6 1.2-2.6 2.6s1.2 2.6 2.6 2.6h12.1l15.4 11.2c.9.7 2.2.7 3.1 0l15.6-11.2h16.7c1 0 1.9-.1 2.9-.4v3.5zM99.6 73.6c-2.2 1.5-5.2 1.5-7.4 0-4-2.7-9.3-2.7-13.3 0-2.2 1.5-5.2 1.5-7.4 0-4.6-2.7-10.3-2.7-14.9 0-2.2 1.5-5.2 1.5-7.4 0-4-2.7-9.3-2.7-13.3 0-2.2 1.5-5.2 1.5-7.4 0-4-2.7-9.3-2.7-13.3 0-2.2 1.5-5.1 1.5-7.3 0 0 0-3.2-4.9-2.3-8.5 1.1.5 2.3.7 3.5.7h110.2c1.2 0 2.4-.2 3.5-.7.8 3.7-2.3 8.5-2.3 8.5-2.2 1.5-5.1 1.5-7.3 0-4.3-2.7-9.6-2.7-13.6 0zm12 5.2L83.4 99 56.5 79.4c1.1-.3 2-.8 3-1.5 1.3-.9 2.8-1.3 4.3-1.1h.5c1.5-.1 3 .3 4.3 1.1 4 2.7 9.3 2.7 13.3 0 2.2-1.5 5.2-1.5 7.4 0 4 2.7 9.3 2.7 13.3 0 2.2-1.5 5.2-1.5 7.4 0 .5.4 1 .7 1.6.9zm5.7 9.2h-9.5l11.5-8.3c.7-.2 1.5-.4 2.1-.7 1.9 2.3 1.6 5.8-.7 7.7-.9.8-2.1 1.3-3.4 1.3zm-15.2-36.6h17c2 0 3.6 3.6 3.6 5.6 0 2-1.6 3.6-3.6 3.6H8.9c-2 0-3.7-1.6-3.7-3.6s1.6-5.6 3.7-5.6H84c1.4 0 2.6-1.2 2.6-2.6s-1.2-2.6-2.6-2.6H13.1c-4.3 0-7.8-3.5-7.8-7.8 0-21.6 17.6-33.1 39.2-33.1h39.2c21.6 0 39.2 11.5 39.2 33.1 0 4.3-3.5 7.8-7.8 7.8h-12.8c-1.4 0-2.6 1.2-2.6 2.6s1 2.6 2.4 2.6zM40.4 12.1c-1.4 0-2.6 1.2-2.6 2.6v.2c0 1.4 1.2 2.6 2.6 2.6 1.4 0 2.6-1.2 2.6-2.6v-.2c0-1.5-1.2-2.6-2.6-2.6zm15.5 4.7c-1.4 0-2.6 1.2-2.6 2.6v.2c0 1.4 1.2 2.6 2.6 2.6 1.4 0 2.6-1.2 2.6-2.6v-.2c0-1.5-1.2-2.6-2.6-2.6zm15.5-4.7c-1.4 0-2.6 1.2-2.6 2.6v.2c0 1.4 1.2 2.6 2.6 2.6 1.4 0 2.6-1.2 2.6-2.6v-.2c.1-1.5-1.1-2.6-2.6-2.6zM87 16.8c-1.4 0-2.6 1.2-2.6 2.6v.2c0 1.4 1.2 2.6 2.6 2.6 1.4 0 2.6-1.2 2.6-2.6v-.2c0-1.5-1.2-2.6-2.6-2.6z"/>
    </symbol>
    <symbol id="close" viewBox="0 0 28 28">
      <path d="M0 4l10 10L0 24l4 4 10-10 10 10 4-4-10-10L28 4l-4-4-10 10L4 0 0 4z"/>
    </symbol>
    <symbol id="dessert" viewBox="0 0 144 78">
      <path d="M141.6 55.9c-2.5-4.6-5.3-9.2-8.1-13.7.6-.5 1.2-1 1.7-1.5 1.3-1.1 2.1-2.6 2.2-4.3.1-1.8-.5-3.6-1.7-4.9-8.2-9-18.9-15.5-30.7-18.5.1-2.8-1.5-5.4-4-6.5C92 2.1 82-.1 72-.1c-10.1 0-20 2.3-29 6.7-2.6 1.1-4.1 3.7-4 6.5-11.8 3.1-22.5 9.5-30.7 18.5-1.2 1.3-1.8 3.1-1.7 4.9.1 1.7.9 3.2 2.2 4.3l1.8 1.5c-2.9 4.4-5.6 9-8.2 13.6C0 60.2-.6 65.3.6 70c.9 3.5 3.6 6.2 7 7.4 1.1.4 2.3.6 3.5.6 2.5 0 4.9-.8 6.9-2.3 5.2-3.9 10.6-7.6 16.1-11.1 1 .6 2.2.9 3.4.9 1 0 1.9-.2 2.8-.6 3.5-1.5 7.2-3 10.8-4.3 1.4 1.1 3.1 1.6 4.8 1.5 10.7-.7 21.5-.7 32.2 0h.5c1.6 0 3.1-.5 4.4-1.5 3.6 1.4 7.2 2.8 10.7 4.3.9.4 1.8.6 2.8.6 1.2 0 2.4-.3 3.4-.9 5.5 3.5 10.9 7.2 16.1 11.1 2 1.5 4.4 2.3 6.9 2.3 1.2 0 2.4-.2 3.5-.6 3.4-1.1 6.1-3.9 7-7.4 1.2-4.7.6-9.8-1.8-14.1zM15.2 72c-1.7 1.3-4 1.7-6.1 1-1.9-.6-3.4-2.2-4-4.2-1-3.6-.5-7.5 1.4-10.8 2.4-4.3 4.9-8.6 7.5-12.8 5.7 5.1 11.3 10.5 16.5 16-5.2 3.5-10.4 7.1-15.3 10.8zm23.2-11.2c-.9.4-1.9.2-2.5-.5-6.6-7.1-13.5-13.8-20.7-20.1h-.1c-1.1-1-2.2-1.9-3.3-2.8-.3-.3-.5-.7-.6-1.1 0-.6.2-1.1.6-1.5 7.5-8.3 17.3-14.2 28.1-17.1C43 30.6 46 43.8 48.6 56.8c-3.4 1.1-6.8 2.5-10.2 4zm52.3-4.9c-.2 1.1-1.2 1.8-2.3 1.7C83 57.2 77.5 57 72 57s-11 .2-16.4.6c-1.1.1-2.1-.6-2.3-1.7-2.9-14.3-6.2-28.8-9.6-43-.1-1 .5-1.9 1.4-2.2C53.5 6.6 62.7 4.5 72 4.6c9.3-.1 18.5 2 26.9 6.1.9.3 1.5 1.3 1.4 2.2-3.4 14.2-6.7 28.7-9.6 43zm17.4 4.4c-.7.7-1.7.9-2.5.5-3.4-1.5-6.8-2.8-10.2-4.1 2.6-13 5.6-26.1 8.7-39.1 10.8 2.8 20.6 8.8 28.2 17.1.4.4.6 1 .6 1.5 0 .4-.3.8-.6 1.1-1.1.9-2.2 1.9-3.3 2.8-7.4 6.4-14.4 13.1-20.9 20.2zm30.8 8.6c-.5 2-2 3.6-4 4.2-2.1.7-4.4.3-6.1-1-5-3.7-10.1-7.3-15.4-10.7 5.3-5.5 10.8-10.9 16.5-16 2.6 4.2 5.2 8.5 7.5 12.8 1.9 3.2 2.4 7 1.5 10.7z"/>
    </symbol>
    <symbol id="fb" viewBox="0 0 10 20">
      <path d="M6.5 20v-9.1h2.9l.4-3.5H6.5V5c-.2-.7.3-1.5 1.1-1.7H10V.1C9.1 0 8.2 0 7.4 0 4.8 0 3 1.6 3 4.7v2.6H0v3.5h3V20h3.5z"/>
    </symbol>
    <symbol id="inst" viewBox="0 0 20 20">
      <path d="M10 1.8c2.7 0 3 0 4 .1.6 0 1.3.1 1.9.3.9.3 1.6 1 1.9 1.9.2.6.3 1.2.3 1.9 0 1.1.1 1.4.1 4s0 3-.1 4c0 .6-.1 1.3-.3 1.9-.3.9-1 1.6-1.9 1.9-.6.2-1.2.3-1.9.3-1 .1-1.4.1-4 .1s-3 0-4-.1c-.6 0-1.3-.1-1.9-.3-.9-.3-1.6-1-1.9-1.9-.2-.6-.3-1.2-.3-1.9 0-1.1-.1-1.4-.1-4s0-3 .1-4c0-.6.1-1.3.3-1.9.3-.9 1-1.6 1.9-1.9.6-.2 1.2-.3 1.9-.3 1-.1 1.3-.1 4-.1M10 0C7.3 0 6.9 0 5.9.1 5 .1 4.2.2 3.4.5 2.1 1 1 2.1.5 3.5.2 4.2.1 5 .1 5.9 0 6.9 0 7.3 0 10s0 3.1.1 4.1c0 .8.2 1.7.5 2.4.4 1.4 1.5 2.5 2.8 3 .8.3 1.6.5 2.4.5H10c2.7 0 3.1 0 4.1-.1.8 0 1.7-.2 2.4-.5 1.3-.5 2.4-1.6 2.9-2.9.3-.8.5-1.6.5-2.4 0-1.1.1-1.4.1-4.1s0-3.1-.1-4.1c0-.8-.2-1.7-.5-2.4-.4-1.4-1.5-2.5-2.8-3C15.8.2 15 0 14.2 0H10zm0 4.9c-2.8 0-5.1 2.3-5.1 5.1s2.3 5.1 5.1 5.2c2.8 0 5.1-2.3 5.1-5.1 0-2.9-2.3-5.2-5.1-5.2zm0 8.4c-1.8 0-3.3-1.5-3.3-3.3S8.2 6.7 10 6.7c1.8 0 3.3 1.5 3.3 3.3 0 1.8-1.5 3.3-3.3 3.3zm6.5-8.6c0 .7-.5 1.2-1.2 1.2s-1.2-.5-1.2-1.2.5-1.2 1.2-1.2 1.2.5 1.2 1.2z"/>
    </symbol>
    <symbol id="minus" viewBox="0 0 32 32">
      <path d="M16 32C7.2 32 0 24.8 0 16S7.2 0 16 0s16 7.2 16 16-7.2 16-16 16zm8-18H8v4h16v-4z"/>
    </symbol>
    <symbol id="pancake" viewBox="0 0 128 130.9">
      <path d="M91.1 6c-.4-1.3-1.8-2.1-3.2-1.6-.1 0-.2.1-.3.1-32.9-13-70.1 3-83.1 35.9s3 70.1 35.9 83.1c.2.1.4.2.6.2.2 4.2 3.8 7.3 7.9 7.1 1.9-.1 3.6-.9 4.9-2.2.4-.4.8-.8 1.1-1.3 7.3 1 14.8.8 22-.7 1.9 3.7 6.4 5.2 10.1 3.4 2.6-1.3 4.2-3.9 4.2-6.7V122c32-15.1 45.8-53.2 30.7-85.2-6.4-13.6-17.3-24.5-30.8-30.8zm-68.8 99.7c-23-23-23-60.4 0-83.4 2.6-2.6 5.5-5 8.6-7.1v12.4c-.6.8-1.2 1.5-1.5 1.8-19.1 19.1-19.1 50.1 0 69.2 3.4 3.4 7.3 6.3 11.6 8.6v11.1c-7-3-13.3-7.2-18.7-12.6zm14.1-56.8l.8.7c2.4 2.1 3.8 5.1 3.8 8.3v43.4C20.3 88.7 13.9 61.7 26.6 41c1.3-2.1 2.7-4.1 4.4-5.9v1.7c-.1 4.6 1.9 9 5.4 12.1zm12.1 77c-1.4 0-2.5-1.1-2.5-2.5V58c0-4.6-2-9-5.5-12.1l-.8-.7C37.3 43 36 40 36 36.8V11.9l.6-.1c1.4-.8 2.9-1.5 4.4-2.1v25.2c0 1.4 1.1 2.5 2.5 2.5s2.5-1.1 2.5-2.5V8.5c0-.2 0-.4-.1-.6 1.7-.5 3.4-1 5.1-1.4v28.4c0 1.4 1.1 2.5 2.5 2.5s2.5-1.1 2.5-2.5V5.6c9.6-1.3 19.4-.2 28.5 3.1l-3.7 6.4C74.4 26 71 38.5 71 51.2v14.5c0 2.8 1.2 5.5 3.4 7.4 1 .9 1.6 2.2 1.6 3.6v29.5c-6.5 1.9-13.4 2.2-20.1 1V58c0-3.2 1.4-6.2 3.7-8.3l.8-.7c3.5-3.1 5.5-7.5 5.5-12.1V8.5C66.1 7.1 65 6 63.6 6s-2.5 1.1-2.5 2.5v28.3c0 3.2-1.4 6.2-3.8 8.3l-.8.7C53 48.9 51 53.3 51 58v65.4c0 1.3-1.1 2.5-2.5 2.5zm7.5-3.5v-10.1c6.7 1.1 13.5.8 20.1-.9v10.3c-6.6 1.4-13.4 1.6-20.1.7zm30.1.9c0 1.4-1.1 2.5-2.5 2.5s-2.5-1.1-2.5-2.5V76.7c0-2.8-1.2-5.5-3.4-7.4a4.6 4.6 0 0 1-1.7-3.6V51.2c0-11.8 3.1-23.4 9.1-33.5l1-1.7v107.3zm19.6-17.6c-4.3 4.3-9.2 7.9-14.5 10.6v-11.6c10.6-7.1 18-18 20.7-30.5 1.9-9 1.3-18.3-1.9-27-.5-1.3-1.9-2-3.2-1.5-1.3.5-2 1.9-1.5 3.2 5.8 16 1.8 34-10.2 46.1-1.2 1.2-2.5 2.4-3.9 3.5V11.6c28.9 15 40.2 50.6 25.2 79.5-2.8 5.4-6.4 10.3-10.7 14.6z"/>
    </symbol>
    <symbol id="pin" viewBox="0 0 38 54">
      <path fill="#FDC919" stroke="#FFF" stroke-miterlimit="10" d="M19 1.2c-9.9 0-17.9 8.1-17.9 18C1.1 28.9 14 45.4 19 52.8c5-7.5 17.9-23.9 17.9-33.6 0-9.9-8-18-17.9-18zM19 26c-4.5 0-8.2-3.7-8.2-8.3s3.7-8.3 8.2-8.3 8.2 3.7 8.2 8.3S23.5 26 19 26z"/>
    </symbol>
    <symbol id="pizza" viewBox="0 0 144 126">
      <path d="M85.1 44.9c-.1-4 3.1-7.3 7.1-7.3 4-.1 7.3 3.1 7.3 7.1.1 4-3.1 7.3-7.1 7.3h-.1c-4 0-7.2-3.2-7.2-7.1zm4.5 0c0 1.5 1.2 2.7 2.7 2.8 1.5 0 2.7-1.2 2.8-2.7 0-1.5-1.2-2.7-2.7-2.8-1.6 0-2.8 1.2-2.8 2.7zm-48.4-.1c.1 4-3.1 7.3-7.1 7.3-4 .1-7.3-3.1-7.3-7.1-.1-4 3.1-7.3 7.1-7.3h.1c3.9 0 7.2 3.2 7.2 7.1zm-4.5 0c0-1.5-1.2-2.7-2.7-2.7-1.5 0-2.7 1.2-2.7 2.7s1.2 2.7 2.7 2.7c1.5 0 2.7-1.2 2.7-2.7zM95 112.3c.6 1 .3 2.3-.7 2.9-.1.1-.1.1-.2.1-19.4 10.9-43.1 11-62.4 0-.1 0-.1-.1-.2-.1s-.1-.1-.2-.1C1.7 98.6-8.7 61.2 7.9 31.7 13.4 22 21.4 13.9 31.2 8.4c.1 0 .1-.1.2-.1s.1-.1.2-.1c19.4-10.9 43-10.9 62.3 0 .1 0 .1.1.2.1s.1.1.2.1c19.2 10.9 31.1 31.3 31.2 53.4 0 1.2-1 2.2-2.2 2.2H66.6l2.7 4.6.2.2L95 112.3zm-5.2.3l-29-49.7c-.4-.7-.4-1.5 0-2.2.4-.7 1.1-1.1 1.9-1.1h49c-.6-13.3-6.8-25.8-17-34.4-.9-.8-1-2.2-.3-3.1.8-.9 2.2-1 3.2-.2 11.2 9.4 17.9 23.1 18.5 37.7h4.7c-.8-19-11-36.3-27.2-46.3L69.5 54.8c-.6 1.1-2 1.4-3.1.8-1.1-.6-1.4-1.9-.8-3l19.8-33.7c-12.3-6.2-26.6-7.1-39.6-2.4-1.2.4-2.4-.2-2.9-1.3-.4-1.1.2-2.4 1.3-2.8C58.4 7.2 74.1 8.2 87.6 15l2.3-4c-17-8.8-37.3-8.8-54.3 0L60 52.6c.6 1.1.2 2.4-.8 3-1.1.6-2.4.2-3.1-.8L36.3 21.1c-11.8 7.3-19.8 19.4-22 33.1-.2 1.2-1.4 2-2.6 1.8-1.2-.2-2-1.3-1.8-2.5 2.4-15 11.3-28.2 24.2-36.2l-2.3-4C15.5 23.2 5.3 40.6 4.5 59.6h48.7c1.2 0 2.2.9 2.3 2.1 0 1.2-.9 2.2-2.1 2.3H13.7c.6 13.5 7 26.1 17.4 34.7.9.8 1.1 2.2.3 3.1-.8.9-2.2 1-3.2.3C16.8 92.7 9.9 78.8 9.2 64H4.5c.8 19 11 36.4 27.2 46.3L56 68.8c.6-1.1 2-1.4 3.1-.8 1.1.6 1.4 1.9.9 3l-19.8 33.7c12.3 6.2 26.6 7.1 39.6 2.4 1.2-.4 2.4.2 2.9 1.3.4 1.1-.2 2.4-1.3 2.8-14.2 5.1-29.9 4.1-43.4-2.7l-2.3 4c16.9 8.9 37.1 8.9 54.1.1zM144 72.1c0 11.1-3 21.9-8.7 31.4-5.6 9.2-13.4 16.9-22.8 22.2-.5.3-1.1.4-1.7.2-.6-.2-1.1-.5-1.4-1L79.3 73.2c-.4-.7-.4-1.5 0-2.2.4-.7 1.1-1.1 1.9-1.1h60.5c1.3 0 2.3 1 2.3 2.2zm-4.5 2.2H85.1l22.5 38.6c11.5-7.1 19.4-18.8 21.9-32.1.2-1.2 1.4-2 2.6-1.8 1.2.2 2 1.4 1.8 2.6-2.7 14.6-11.5 27.3-24.1 35.1l2.3 4c16.3-10 26.5-27.3 27.4-46.4zM70 96.2c.1 4-3.1 7.3-7.1 7.3-4 .1-7.3-3.1-7.3-7.1-.1-4 3.1-7.3 7.1-7.3h.1c3.9-.1 7.1 3.1 7.2 7.1zm-4.5 0c0-1.5-1.2-2.7-2.7-2.7-1.5 0-2.7 1.2-2.7 2.7s1.2 2.7 2.7 2.7c1.4-.1 2.6-1.3 2.7-2.7zM40.6 76.9c.1 4-3.1 7.3-7.1 7.3-4 .1-7.3-3.1-7.3-7.1-.1-4 3.1-7.3 7.1-7.3h.1c4 0 7.2 3.2 7.2 7.1zm-4.5 0c0-1.5-1.2-2.7-2.7-2.7-1.5 0-2.7 1.2-2.7 2.7s1.2 2.7 2.7 2.7c1.5 0 2.7-1.2 2.7-2.7zm35.1-50.1c.1 4-3.1 7.3-7.1 7.3-4 .1-7.3-3.1-7.3-7.1-.1-4 3.1-7.3 7.1-7.3h.1c3.9 0 7.2 3.2 7.2 7.1zm-4.5 0c0-1.5-1.2-2.7-2.7-2.7-1.5 0-2.7 1.2-2.7 2.7s1.2 2.7 2.7 2.7c1.5 0 2.7-1.2 2.7-2.7zm38.4 62.1c-.1-4 3.1-7.3 7.1-7.3 4-.1 7.3 3.1 7.3 7.1.1 4-3.1 7.3-7.1 7.3h-.1c-4 0-7.2-3.2-7.2-7.1zm4.5 0c0 1.5 1.2 2.7 2.7 2.8 1.5 0 2.7-1.2 2.8-2.7 0-1.5-1.2-2.7-2.7-2.8-1.6 0-2.8 1.2-2.8 2.7z"/>
    </symbol>
    <symbol id="plus" viewBox="0 0 32 32">
      <path d="M16 32C7.2 32 0 24.8 0 16S7.2 0 16 0s16 7.2 16 16-7.2 16-16 16zm8-18h-6V8h-4v6H8v4h6v6h4v-6h6v-4z"/>
    </symbol>
    <symbol id="porridge" viewBox="0 0 128 118">
      <path d="M125.5 39.3H2.5c-1.4 0-2.5 1.1-2.5 2.5v25.6c0 21 16 38.6 36.9 40.6v7.6c0 1.4 1.1 2.5 2.5 2.5h49.2c1.4 0 2.5-1.1 2.5-2.5V108C112 106 128 88.4 128 67.4V41.8c0-1.4-1.1-2.5-2.5-2.5zm-39.3 73.8H41.8v-4.9h44.3v4.9h.1zm36.9-45.7c0 19.3-15.3 35.1-34.5 35.9H39.4C20.2 102.5 5 86.6 4.9 67.4v-7.3h102.8c1.4 0 2.5-1 2.5-2.4s-1-2.5-2.4-2.5H4.9v-11h118.2v23.2zM41.2 15.5C39 13.3 38.5 9.9 40 7.2l1.9-3.6c.6-1.2.2-2.7-1-3.3-1.2-.6-2.7-.2-3.3 1v.1L35.7 5c-2.6 4.6-1.7 10.3 2 14 2.2 2.1 2.7 5.4 1.3 8.2l-1.9 3.7c-.6 1.2-.1 2.7 1.1 3.3.3.2.7.3 1.1.3.9 0 1.8-.5 2.2-1.4l1.9-3.7c2.3-4.6 1.4-10.2-2.2-13.9zm49.1 0c-2.2-2.2-2.7-5.6-1.3-8.3l2-3.6c.6-1.2.2-2.7-1-3.3-1.2-.6-2.7-.2-3.3 1l-1.9 3.6c-2.5 4.6-1.6 10.4 2.1 14.1 2.2 2.2 2.7 5.4 1.3 8.2l-1.8 3.7c-.6 1.2-.1 2.7 1.1 3.3.3.2.7.3 1.1.3.9 0 1.8-.5 2.2-1.4l1.8-3.7c2.3-4.6 1.4-10.2-2.3-13.9zm-24.6 0c-2.2-2.2-2.7-5.6-1.3-8.3l1.9-3.6c.6-1.2.2-2.7-1-3.3-1.2-.6-2.7-.2-3.3 1v.1L60.1 5c-2.5 4.6-1.6 10.4 2.1 14.1 2.2 2.1 2.7 5.4 1.3 8.2L61.7 31c-.6 1.2-.1 2.7 1.2 3.3 1.2.6 2.6.1 3.2-1.1l1.8-3.7c2.4-4.7 1.5-10.3-2.2-14z"/>
    </symbol>
    <symbol id="rouble" viewBox="0 0 17 22">
      <path d="M.1 21.9c-.1-.1-.1-.5 0-.5 0 0 .2-.1.8-.1.6 0 .7 0 1-.1.4-.1.6-.3.9-.6.4-.4.4-.6.4-3.6v-2.3H1.7c-1.4 0-1.6 0-1.6-.1-.1-.1-.1-.9 0-1 .1-.1.2-.1 1.6-.1h1.6v-1.4H1.7c-1.4 0-1.6 0-1.6-.1-.1-.1-.1-.9 0-1 .1-.1.2-.1 1.6-.1h1.6V7.3c0-4.4 0-5.2-.3-5.8-.2-.2-.6-.5-1.1-.7-.2 0-.4-.1-1-.1S.1.7.1.6C0 .5 0 .1.1.1.2 0 .6 0 4.8 0c5.1 0 5.3 0 6.5.2 1.5.3 2.7.8 3.6 1.5.5.4 1 1 1.3 1.5.3.5.4.8.6 1.5.3 1.1.2 2.3-.2 3.5-.1.3-.4 1-.7 1.3-1 1.5-2.6 2.3-4.8 2.6-.3 0-1 .1-2.6.1H6.3v1.4h4.8c4.3 0 4.8 0 4.8.1.1.1.1.9 0 1-.1.1-.5.1-4.8.1H6.4v1.9c0 2.5.1 3.2.3 3.8.1.3.5.6.8.8.4.2.6.2 1.4.3.6 0 .7 0 .8.1.1.1.1.5 0 .5-.2-.2-.7-.2-4.9-.2s-4.6 0-4.7-.1zM9.8 11c.8-.1 1.5-.6 2.2-1.2.6-.6 1-1.4 1.2-2.4.1-.5.1-1.6 0-2.2-.3-2.1-1.4-3.4-3.3-3.8H8.1c-.5 0-1.4.2-1.6.3h-.1v9.4H8c1 0 1.7-.1 1.8-.1z"/>
    </symbol>
    <symbol id="ruble" viewBox="0 0 14 16">
      <title>Untitled</title><path d="M.4 13.5h2.5v2.2c0 .1 0 .2.1.3h2c.1 0 .2 0 .2-.1.1-.1.1-.2.1-.3v-2.2h5.5c.1 0 .2 0 .3-.1.1-.1.1-.2.1-.3v-1.5c0-.1 0-.2-.1-.3-.1-.1-.1-.1-.3-.1H5.3V9.9H9c1.5 0 2.6-.5 3.6-1.4 1-.9 1.4-2.1 1.4-3.5 0-1.5-.5-2.7-1.4-3.6C11.7.5 10.5 0 9.1 0H3.2c-.1 0-.2 0-.3.1-.1.1-.1.2-.1.3v7.1H.4c-.1 0-.2 0-.3.1-.1.1-.1.2-.1.3v1.7c0 .1 0 .2.1.3.1.1.1.1.3.1h2.5v1.3H.4c-.1 0-.2 0-.3.1-.1 0-.1.1-.1.2v1.5c0 .1 0 .2.1.3.1 0 .2.1.3.1zM5.3 2.4h3.5c.8 0 1.4.2 1.9.7.5.5.7 1.1.7 1.8 0 .8-.2 1.4-.7 1.8-.5.5-1.1.7-1.9.7H5.3v-5z"/>
    </symbol>
    <symbol id="salad" viewBox="0 0 128 106">
      <path d="M79 17c-1.4 0-2.5 1.1-2.5 2.5v12.3c0 1.4 1.1 2.6 2.5 2.6s2.6-1.1 2.6-2.6V19.5c-.1-1.4-1.2-2.6-2.6-2.5zm22.5 9.8c-1-1-2.6-1-3.6 0L92.6 32c-1 1-1 2.5 0 3.5.5.5 1.1.7 1.8.7s1.3-.3 1.8-.7l5.3-5.2c.9-.9 1-2.5 0-3.5zM66.3 32L61 26.8c-1-1-2.6-1-3.6 0s-1 2.5 0 3.5l5.3 5.2c.5.5 1.1.7 1.8.7s1.3-.3 1.8-.7c1-.9 1-2.5 0-3.5zm59.2 8.1h-9.3c1.3-2.7 2-5.7 2-8.8-.1-11.4-9.4-20.7-20.8-20.6C91.6.6 78.8-3 68.7 2.7c-3.3 1.9-6.1 4.6-8 8-11.4-.1-20.8 9.2-20.9 20.6 0 3 .7 6.1 2.1 8.8h-7V20.4c0-1.4-1.1-2.5-2.5-2.5-10.4-.1-18.9 8.2-18.9 18.6 0 1.2.1 2.4.3 3.6H2.5c-1.4 0-2.5 1.1-2.5 2.5 0 35.3 28.7 64 64 64s64-28.7 64-64c0-1.4-1.1-2.5-2.5-2.5zM60.7 15.7c.4 0 .9 0 1.4.1 1.1.1 2.1-.5 2.5-1.5 3.6-8 13-11.5 21-7.8 3.5 1.6 6.3 4.4 7.8 7.8.5 1 1.5 1.6 2.6 1.5.5 0 .9-.1 1.4-.1 8.6 0 15.7 6.9 15.8 15.6 0 3.1-1 6.2-2.7 8.8H47.8c-1.9-2.5-3-5.6-2.9-8.8.1-8.7 7.1-15.6 15.8-15.6zm-30.9 7.4v17H18.9c-1.9-7.3 2.5-14.8 9.8-16.7.4-.2.7-.2 1.1-.3zM64 101c-31.4.1-57.3-24.5-58.8-55.9h117.7c-1.6 31.4-27.5 56-58.9 55.9zm42.7-31.6c-1.1-.8-2.7-.6-3.6.6C94 82.3 79.4 89.6 64 89.6c-1.4 0-2.6 1.1-2.6 2.4 0 1.4 1.1 2.6 2.4 2.6h.1c17.1 0 33.2-8.1 43.3-21.8.9-1 .7-2.6-.5-3.4z"/>
    </symbol>
    <symbol id="soup" viewBox="0 0 104 128">
      <path d="M101.5 45h-99C1.1 45 0 46.1 0 47.5v22c0 16.6 8.2 32.1 21.9 41.5-3.8 4-3.7 10.3.2 14.1 1.8 1.8 4.3 2.8 6.8 2.8H75c5.5-.1 9.9-4.6 9.9-10.1 0-2.6-1-5-2.8-6.8 13.7-9.3 21.9-24.9 21.9-41.5v-22c0-1.3-1.1-2.4-2.5-2.5zm-26.4 78H28.9c-2.8-.1-4.9-2.4-4.9-5.1 0-2.1 1.4-3.9 3.4-4.6h.1c.1 0 .2-.1.4-.1h.1c.1 0 .2 0 .3-.1h47.3c.1 0 .2 0 .3.1h.1c.1 0 .2.1.3.1h.1c2.6.9 4 3.7 3.1 6.4-.5 1.9-2.3 3.3-4.4 3.3zm2.1-14.7H27.4c-.1 0-.2 0-.3.1h-.3c-13.6-8.3-21.9-23-21.9-38.8v-1H99v1c.1 15.8-8.2 30.5-21.8 38.7zm21.9-44.7H4.9V50H99v13.6zM87.9 33.5H21.7c-1.7 0-3-1.5-3-3.2 0-1.6 1.4-3 3-3h50c4.5 0 8.1-3.6 8.1-8.1s-3.6-8.1-8.1-8.1H29.1c-1.7 0-3-1.5-3-3.2 0-1.6 1.4-3 3-3H55c1.4 0 2.5-1.1 2.5-2.5S56.3 0 54.9 0H29.1c-4.5.1-8 3.7-8 8.2.1 4.4 3.6 7.9 8 8h42.6c1.7 0 3.1 1.4 3.1 3.1s-1.4 3.1-3.1 3.1h-50c-4.5.1-8 3.7-8 8.2.1 4.4 3.6 7.9 8 8h66.2c1.4 0 2.5-1.1 2.5-2.5 0-1.5-1.2-2.6-2.5-2.6z"/>
    </symbol>
    <symbol id="star" viewBox="0 0 48 46.1">
      <path d="M24 37l14.8 9-3.9-17L48 17.6l-17.3-1.5L24 0l-6.7 16.1L0 17.6 13.1 29 9.2 46 24 37z" fill="#fc0"/>
    </symbol>
    <symbol id="toper" viewBox="0 0 30 30">
      <path d="M30 28.3c0 .9-.7 1.7-1.5 1.7L15 23.6 1.5 30C.7 30 0 29.2 0 28.3L13.8.6S15-.7 16.1.6C17.3 1.8 30 28.3 30 28.3z"/>
    </symbol>
    <symbol id="twitter" viewBox="0 0 16 13">
      <path d="M5 13c5.1 0 9.3-4.1 9.3-9.2v-.5c.6-.5 1.2-1 1.6-1.7-.5.2-1.1.4-1.8.4.7-.4 1.2-1.1 1.5-1.8-.6.4-1.4.6-2.1.8-.6-.7-1.5-1-2.4-1-1.8 0-3.3 1.5-3.3 3.3 0 .3 0 .5.1.8C5.2 3.9 2.8 2.6 1.1.6.2 2.1.7 4 2.1 5c-.5 0-1-.2-1.5-.4v.1c0 1.6 1.1 2.9 2.6 3.2h-.8c-.2 0-.4 0-.6-.1.4 1.3 1.7 2.3 3.1 2.3-1.2.9-2.6 1.4-4.1 1.4-.3 0-.5 0-.8-.1C1.5 12.5 3.2 13 5 13"/>
    </symbol>
    <symbol id="vk" viewBox="0 0 20 11.1">
      <path d="M9.8 11H11c.2 0 .4-.1.5-.2.1-.1.2-.3.2-.5 0 0 0-1.6.7-1.8s1.7 1.5 2.7 2.2c.4.3.9.4 1.3.4h2.7s1.4-.1.7-1.2c-.5-.8-1.2-1.6-2-2.2-1.7-1.5-1.5-1.3.6-3.9 1.2-1.6 1.7-2.5 1.6-3-.3-.3-.7-.4-1-.3h-3c-.1 0-.3 0-.4.1l-.3.3c-.3.8-.7 1.5-1.1 2.3-1.3 2.2-1.9 2.3-2.1 2.2-.5-.3-.4-1.3-.4-2 0-2.1.3-3-.6-3.2-.5-.2-1-.2-1.5-.2-.8-.1-1.7 0-2.5.2-.3.2-.6.6-.4.6.3 0 .6.2.9.4.2.4.3.9.3 1.3 0 0 .2 2.5-.4 2.8-.4.2-1-.2-2.1-2.2-.5-.7-.9-1.4-1.2-2.1 0-.2-.1-.3-.2-.4-.2-.1-.3-.1-.5-.1H.7C.5.5.3.6.1.7c-.1.1-.1.3 0 .4 0 0 2.2 5.1 4.8 7.6 1.2 1.4 3 2.2 4.9 2.3z"/>
    </symbol>
    <symbol id="youtube" viewBox="0 0 16 12">
      <path d="M8 0S4.6 0 2.4.2C1.8.2 1.2.5.8.9.4 1.4.2 2 .2 2.6.1 3.5 0 4.4 0 5.3v1.3c0 .9.1 1.8.2 2.8.1.6.3 1.2.6 1.7.5.5 1.1.7 1.8.7C3.8 12 8 12 8 12s3.4 0 5.6-.2c.6 0 1.2-.3 1.6-.7.3-.5.6-1.1.6-1.7.1-.9.2-1.8.2-2.8V5.3c0-.9-.1-1.8-.2-2.8-.1-.6-.3-1.2-.6-1.7-.4-.5-1-.7-1.6-.7C11.4 0 8 0 8 0M6.3 3.6l4.3 2.3-4.3 2.5V3.6z"/>
    </symbol></svg>